<svg width="1280" height="720" viewBox="0 0 1280 720" fill="none" xmlns="http://www.w3.org/2000/svg">
  <rect width="1280" height="720" rx="32" fill="#07090D"/>
  <circle cx="220" cy="60" r="270" fill="#22D3EE" fill-opacity="0.09"/>
  <circle cx="1090" cy="690" r="320" fill="#818CF8" fill-opacity="0.08"/>

  <rect x="64" y="48" width="1152" height="624" rx="28" fill="#0E1217" stroke="rgba(255,255,255,0.08)"/>

  <g transform="translate(96 82)">
    <rect width="42" height="42" rx="12" fill="#22D3EE" fill-opacity="0.12" stroke="#22D3EE" stroke-opacity="0.28"/>
    <path d="M10 27C15 17 21 31 27 15C30 8 34 10 37 13" stroke="#22D3EE" stroke-width="3" stroke-linecap="round"/>
    <circle cx="31" cy="15" r="3.5" fill="#22D3EE"/>
  </g>

  <text x="152" y="110" fill="#F3F5F7" font-family="IBM Plex Sans, Arial, sans-serif" font-size="28" font-weight="700">SpendTrack</text>
  <text x="152" y="136" fill="#8A94A6" font-family="IBM Plex Sans, Arial, sans-serif" font-size="15">Local-first spending visibility</text>

  <g transform="translate(916 84)" font-family="IBM Plex Sans, Arial, sans-serif" font-size="14" font-weight="600">
    <rect width="84" height="36" rx="18" fill="#22D3EE" fill-opacity="0.13" stroke="#22D3EE" stroke-opacity="0.35"/>
    <text x="26" y="23" fill="#22D3EE">Pulse</text>
    <text x="112" y="23" fill="#8A94A6">Ledger</text>
    <text x="204" y="23" fill="#8A94A6">Insights</text>
  </g>

  <g transform="translate(96 174)">
    <rect width="628" height="242" rx="22" fill="#111821" stroke="rgba(255,255,255,0.08)"/>
    <text x="28" y="44" fill="#8A94A6" font-family="IBM Plex Sans, Arial, sans-serif" font-size="14" font-weight="600" letter-spacing="2">APRIL SPEND</text>
    <text x="28" y="104" fill="#F3F5F7" font-family="JetBrains Mono, Consolas, monospace" font-size="54" font-weight="700">$1,284.60</text>
    <text x="31" y="136" fill="#22C55E" font-family="IBM Plex Sans, Arial, sans-serif" font-size="16" font-weight="600">12% under expected pace</text>

    <path d="M34 191C80 172 104 206 148 174C193 141 232 178 270 153C320 119 356 159 399 129C450 92 501 134 558 98" stroke="#22D3EE" stroke-width="4" stroke-linecap="round"/>
    <path d="M34 191C80 172 104 206 148 174C193 141 232 178 270 153C320 119 356 159 399 129C450 92 501 134 558 98L558 212L34 212Z" fill="url(#lineFade)"/>

    <g transform="translate(475 36)">
      <circle cx="72" cy="72" r="58" stroke="#24313B" stroke-width="16"/>
      <path d="M72 14a58 58 0 1 1-49 89" stroke="#22D3EE" stroke-width="16" stroke-linecap="round"/>
      <text x="48" y="78" fill="#F3F5F7" font-family="JetBrains Mono, Consolas, monospace" font-size="24" font-weight="700">68%</text>
      <text x="43" y="101" fill="#8A94A6" font-family="IBM Plex Sans, Arial, sans-serif" font-size="12">pace</text>
    </g>
  </g>

  <g transform="translate(752 174)">
    <rect width="368" height="242" rx="22" fill="#111821" stroke="rgba(255,255,255,0.08)"/>
    <text x="24" y="42" fill="#F3F5F7" font-family="IBM Plex Sans, Arial, sans-serif" font-size="20" font-weight="700">Top categories</text>
    <g font-family="IBM Plex Sans, Arial, sans-serif" font-size="14" font-weight="600">
      <text x="24" y="84" fill="#F3F5F7">Food & Dining</text>
      <rect x="24" y="98" width="292" height="8" rx="4" fill="#1F252E"/>
      <rect x="24" y="98" width="215" height="8" rx="4" fill="#22D3EE"/>
      <text x="24" y="136" fill="#F3F5F7">Transport</text>
      <rect x="24" y="150" width="292" height="8" rx="4" fill="#1F252E"/>
      <rect x="24" y="150" width="162" height="8" rx="4" fill="#60A5FA"/>
      <text x="24" y="188" fill="#F3F5F7">Shopping</text>
      <rect x="24" y="202" width="292" height="8" rx="4" fill="#1F252E"/>
      <rect x="24" y="202" width="118" height="8" rx="4" fill="#F59E0B"/>
    </g>
  </g>

  <g transform="translate(96 444)">
    <rect width="504" height="172" rx="22" fill="#111821" stroke="rgba(255,255,255,0.08)"/>
    <text x="24" y="42" fill="#F3F5F7" font-family="IBM Plex Sans, Arial, sans-serif" font-size="20" font-weight="700">Quick entry</text>
    <rect x="24" y="68" width="456" height="54" rx="16" fill="#161B22" stroke="rgba(255,255,255,0.08)"/>
    <text x="48" y="102" fill="#8A94A6" font-family="JetBrains Mono, Consolas, monospace" font-size="17">coffee 4.50 yesterday</text>
    <rect x="24" y="134" width="92" height="24" rx="12" fill="#22D3EE" fill-opacity="0.12"/>
    <text x="42" y="151" fill="#22D3EE" font-family="IBM Plex Sans, Arial, sans-serif" font-size="12" font-weight="700">Food</text>
    <rect x="128" y="134" width="92" height="24" rx="12" fill="#22C55E" fill-opacity="0.12"/>
    <text x="151" y="151" fill="#22C55E" font-family="IBM Plex Sans, Arial, sans-serif" font-size="12" font-weight="700">$4.50</text>
  </g>

  <g transform="translate(628 444)">
    <rect width="492" height="172" rx="22" fill="#111821" stroke="rgba(255,255,255,0.08)"/>
    <text x="24" y="42" fill="#F3F5F7" font-family="IBM Plex Sans, Arial, sans-serif" font-size="20" font-weight="700">Activity heatmap</text>
    <g transform="translate(24 68)">
      <rect width="18" height="18" rx="5" fill="#1F252E"/>
      <rect x="28" width="18" height="18" rx="5" fill="#164E63"/>
      <rect x="56" width="18" height="18" rx="5" fill="#22D3EE"/>
      <rect x="84" width="18" height="18" rx="5" fill="#1F252E"/>
      <rect x="112" width="18" height="18" rx="5" fill="#155E75"/>
      <rect x="140" width="18" height="18" rx="5" fill="#1F252E"/>
      <rect x="168" width="18" height="18" rx="5" fill="#22D3EE"/>
      <rect x="196" width="18" height="18" rx="5" fill="#164E63"/>
      <rect x="224" width="18" height="18" rx="5" fill="#1F252E"/>
      <rect x="252" width="18" height="18" rx="5" fill="#155E75"/>
      <rect x="280" width="18" height="18" rx="5" fill="#22D3EE"/>
      <rect x="308" width="18" height="18" rx="5" fill="#1F252E"/>
      <rect x="336" width="18" height="18" rx="5" fill="#164E63"/>
      <rect x="364" width="18" height="18" rx="5" fill="#155E75"/>
    </g>
    <text x="24" y="132" fill="#8A94A6" font-family="IBM Plex Sans, Arial, sans-serif" font-size="14">Private local data, clear daily feedback.</text>
  </g>

  <defs>
    <linearGradient id="lineFade" x1="296" y1="98" x2="296" y2="212" gradientUnits="userSpaceOnUse">
      <stop stop-color="#22D3EE" stop-opacity="0.18"/>
      <stop offset="1" stop-color="#22D3EE" stop-opacity="0"/>
    </linearGradient>
  </defs>
</svg>
